<svg xmlns="http://www.w3.org/2000/svg" viewBox="0 0 512 512" fill="currentColor">
  <path d="M44.84,91.16c2.694,7.101,12.731,9.089,17.94,3.57c6.186-6.007,2.86-17.018-5.63-18.56C48.728,74.328,41.4,83.25,44.84,91.16z"></path>
  <path d="M88.84,91.16c2.694,7.101,12.732,9.087,17.94,3.57c6.186-6.007,2.86-17.018-5.63-18.56C92.728,74.328,85.4,83.25,88.84,91.16z"></path>
  <path d="M132.84,91.16c2.691,7.101,12.733,9.088,17.94,3.57c6.194-5.993,2.859-17.031-5.63-18.56C136.725,74.325,129.401,83.25,132.84,91.16z"></path>
  <path d="M368.229,97.952H457c6.075,0,11-4.925,11-11s-4.925-11-11-11h-88.771c-6.075,0-11,4.925-11,11S362.154,97.952,368.229,97.952z"></path>
  <path d="M461,31.952H51c-28.122,0-51,22.878-51,51v346.096c0,28.122,22.878,51,51,51h410c28.122,0,51-22.878,51-51V82.952C512,54.831,489.122,31.952,461,31.952z M51,53.952h410c15.991,0,29,13.009,29,29v37H22v-37C22,66.961,35.009,53.952,51,53.952z M461,458.048H51c-15.991,0-29-13.009-29-29V141.952h468v287.096C490,445.039,476.991,458.048,461,458.048z"></path>
  <path d="M281.875,342.438c-4.701-3.847-11.631-3.155-15.479,1.548c-2.573,3.145-6.375,4.948-10.43,4.948c-4.033,0-7.821-1.787-10.393-4.904c-3.868-4.685-10.8-5.35-15.486-1.482c-4.685,3.867-5.349,10.8-1.482,15.486c6.766,8.198,16.739,12.9,27.361,12.9c10.681,0,20.688-4.745,27.457-13.018C287.271,353.216,286.578,346.286,281.875,342.438z"></path>
  <path d="M229.3,317.11c7.101-2.69,9.078-12.73,3.57-17.94c-6.807-6.885-18.848-1.908-18.779,7.78C213.866,314.533,222.378,320.233,229.3,317.11z"></path>
  <path d="M297.07,302.75c-2.689-7.112-12.723-9.086-17.94-3.58c-6.886,6.802-1.911,18.857,7.78,18.779C294.488,318.178,300.184,309.671,297.07,302.75z"></path>
  <path d="M300.911,251.952H267V228.06c12.803-4.541,22-16.768,22-31.108c0-18.196-14.804-33-33-33s-33,14.804-33,33c0,14.34,9.197,26.567,22,31.108v23.892h-33.911c-28.122,0-51,22.878-51,51v60.983c0,28.122,22.878,51,51,51h19.242l17.891,17.891c2.148,2.148,4.963,3.222,7.778,3.222s5.63-1.074,7.778-3.222l17.891-17.891h19.242c28.122,0,51-22.878,51-51v-60.983C351.911,274.831,329.032,251.952,300.911,251.952z M256,185.952c6.065,0,11,4.935,11,11s-4.935,11-11,11s-11-4.935-11-11S249.935,185.952,256,185.952z M329.911,363.936c0,15.991-13.009,29-29,29h-23.798c-2.917,0-5.715,1.159-7.778,3.222L256,409.492l-13.334-13.334c-2.063-2.063-4.861-3.222-7.778-3.222h-23.798c-15.991,0-29-13.009-29-29v-60.983c0-15.991,13.009-29,29-29h89.821c15.991,0,29,13.009,29,29V363.936z"></path>
</svg>